<mxfile host="ac.draw.io" modified="2024-02-19T15:28:52.480Z" agent="Mozilla/5.0 (Macintosh; Intel Mac OS X 10_15_7) AppleWebKit/605.1.15 (KHTML, like Gecko) Version/17.2.1 Safari/605.1.15" etag="imqAfypjEayS5gUKUJ3V" version="23.1.5" type="embed">
  <diagram id="ccn-1-YCY7uSJSsg_6Bq" name="Page-1">
    <mxGraphModel dx="-26626" dy="9755" grid="1" gridSize="20" guides="1" tooltips="1" connect="1" arrows="1" fold="1" page="1" pageScale="1" pageWidth="827" pageHeight="1169" math="0" shadow="0">
      <root>
        <mxCell id="0" />
        <mxCell id="1" parent="0" />
        <mxCell id="b3hrkV7SYTynuMKQ9GDM-1" value="" style="group" parent="1" connectable="0" vertex="1">
          <mxGeometry x="34720" y="-5520" width="100" height="360" as="geometry" />
        </mxCell>
        <mxCell id="b3hrkV7SYTynuMKQ9GDM-2" value="&lt;br&gt;DDR x16" style="rounded=0;whiteSpace=wrap;html=1;fontSize=40;rotation=0;horizontal=0;" parent="b3hrkV7SYTynuMKQ9GDM-1" vertex="1">
          <mxGeometry width="100" height="360" as="geometry" />
        </mxCell>
        <mxCell id="b3hrkV7SYTynuMKQ9GDM-3" value="TARG&lt;br&gt;128b" style="rounded=0;whiteSpace=wrap;html=1;fillColor=#f8cecc;strokeColor=#b85450;strokeWidth=3;" parent="b3hrkV7SYTynuMKQ9GDM-1" vertex="1">
          <mxGeometry y="160" width="40" height="40" as="geometry" />
        </mxCell>
        <mxCell id="b3hrkV7SYTynuMKQ9GDM-4" value="&lt;br&gt;DDR x16" style="rounded=0;whiteSpace=wrap;html=1;fontSize=40;rotation=-180;horizontal=0;" parent="1" vertex="1">
          <mxGeometry x="30780" y="-5520" width="100" height="360" as="geometry" />
        </mxCell>
        <mxCell id="b3hrkV7SYTynuMKQ9GDM-5" value="AI CORE" style="rounded=0;whiteSpace=wrap;html=1;fontSize=40;" parent="1" vertex="1">
          <mxGeometry x="31040" y="-5520" width="560" height="720" as="geometry" />
        </mxCell>
        <mxCell id="b3hrkV7SYTynuMKQ9GDM-6" value="AI CORE" style="rounded=0;whiteSpace=wrap;html=1;fontSize=40;" parent="1" vertex="1">
          <mxGeometry x="31040" y="-3760" width="560" height="720" as="geometry" />
        </mxCell>
        <mxCell id="b3hrkV7SYTynuMKQ9GDM-7" value="AI CORE" style="rounded=0;whiteSpace=wrap;html=1;fontSize=40;" parent="1" vertex="1">
          <mxGeometry x="31040" y="-3040" width="560" height="720" as="geometry" />
        </mxCell>
        <mxCell id="b3hrkV7SYTynuMKQ9GDM-8" value="AI CORE" style="rounded=0;whiteSpace=wrap;html=1;fontSize=40;" parent="1" vertex="1">
          <mxGeometry x="31040" y="-4800" width="560" height="720" as="geometry" />
        </mxCell>
        <mxCell id="b3hrkV7SYTynuMKQ9GDM-9" value="L2" style="rounded=0;whiteSpace=wrap;html=1;fontSize=40;" parent="1" vertex="1">
          <mxGeometry x="31920" y="-5520" width="880" height="360" as="geometry" />
        </mxCell>
        <mxCell id="b3hrkV7SYTynuMKQ9GDM-15" value="L2" style="rounded=0;whiteSpace=wrap;html=1;fontSize=40;" parent="1" vertex="1">
          <mxGeometry x="31920" y="-5160" width="880" height="360" as="geometry" />
        </mxCell>
        <mxCell id="b3hrkV7SYTynuMKQ9GDM-16" value="L2" style="rounded=0;whiteSpace=wrap;html=1;fontSize=40;" parent="1" vertex="1">
          <mxGeometry x="31920" y="-4800" width="880" height="360" as="geometry" />
        </mxCell>
        <mxCell id="b3hrkV7SYTynuMKQ9GDM-17" value="L2" style="rounded=0;whiteSpace=wrap;html=1;fontSize=40;" parent="1" vertex="1">
          <mxGeometry x="31920" y="-4440" width="880" height="360" as="geometry" />
        </mxCell>
        <mxCell id="b3hrkV7SYTynuMKQ9GDM-18" value="L2" style="rounded=0;whiteSpace=wrap;html=1;fontSize=40;" parent="1" vertex="1">
          <mxGeometry x="31920" y="-3760" width="880" height="360" as="geometry" />
        </mxCell>
        <mxCell id="b3hrkV7SYTynuMKQ9GDM-19" value="L2" style="rounded=0;whiteSpace=wrap;html=1;fontSize=40;" parent="1" vertex="1">
          <mxGeometry x="31920" y="-3400" width="880" height="360" as="geometry" />
        </mxCell>
        <mxCell id="b3hrkV7SYTynuMKQ9GDM-20" value="L2" style="rounded=0;whiteSpace=wrap;html=1;fontSize=40;" parent="1" vertex="1">
          <mxGeometry x="31920" y="-3040" width="880" height="360" as="geometry" />
        </mxCell>
        <mxCell id="b3hrkV7SYTynuMKQ9GDM-21" value="L2" style="rounded=0;whiteSpace=wrap;html=1;fontSize=40;" parent="1" vertex="1">
          <mxGeometry x="31920" y="-2680" width="880" height="360" as="geometry" />
        </mxCell>
        <mxCell id="b3hrkV7SYTynuMKQ9GDM-25" value="SDMA" style="rounded=0;whiteSpace=wrap;html=1;fontSize=40;horizontal=1;" parent="1" vertex="1">
          <mxGeometry x="31920" y="-4020" width="440" height="40" as="geometry" />
        </mxCell>
        <mxCell id="b3hrkV7SYTynuMKQ9GDM-26" value="SDMA" style="rounded=0;whiteSpace=wrap;html=1;fontSize=40;horizontal=1;" parent="1" vertex="1">
          <mxGeometry x="32360" y="-4020" width="440" height="40" as="geometry" />
        </mxCell>
        <mxCell id="b3hrkV7SYTynuMKQ9GDM-27" style="edgeStyle=orthogonalEdgeStyle;rounded=0;orthogonalLoop=1;jettySize=auto;html=1;exitX=1;exitY=0.5;exitDx=0;exitDy=0;fontSize=28;" parent="1" source="b3hrkV7SYTynuMKQ9GDM-28" edge="1">
          <mxGeometry relative="1" as="geometry">
            <mxPoint x="31660" y="-4879.813953488372" as="targetPoint" />
          </mxGeometry>
        </mxCell>
        <mxCell id="b3hrkV7SYTynuMKQ9GDM-28" value="INIT&lt;br&gt;64b" style="rounded=0;whiteSpace=wrap;html=1;fillColor=#d5e8d4;strokeColor=#82b366;strokeWidth=3;dashed=1;" parent="1" vertex="1">
          <mxGeometry x="31560" y="-4900" width="40" height="40" as="geometry" />
        </mxCell>
        <mxCell id="b3hrkV7SYTynuMKQ9GDM-29" value="TARG&lt;br&gt;64b" style="rounded=0;whiteSpace=wrap;html=1;fillColor=#d5e8d4;strokeColor=#82b366;strokeWidth=3;" parent="1" vertex="1">
          <mxGeometry x="31560" y="-5380" width="40" height="40" as="geometry" />
        </mxCell>
        <mxCell id="b3hrkV7SYTynuMKQ9GDM-30" value="INIT&lt;br&gt;512b" style="rounded=0;whiteSpace=wrap;html=1;fillColor=#f8cecc;strokeColor=#b85450;strokeWidth=3;dashed=1;" parent="1" vertex="1">
          <mxGeometry x="31560" y="-5140" width="40" height="40" as="geometry" />
        </mxCell>
        <mxCell id="b3hrkV7SYTynuMKQ9GDM-31" style="edgeStyle=orthogonalEdgeStyle;rounded=0;orthogonalLoop=1;jettySize=auto;html=1;exitX=1;exitY=0.5;exitDx=0;exitDy=0;fontSize=28;" parent="1" source="b3hrkV7SYTynuMKQ9GDM-32" edge="1">
          <mxGeometry relative="1" as="geometry">
            <mxPoint x="31660" y="-4719.813953488372" as="targetPoint" />
          </mxGeometry>
        </mxCell>
        <mxCell id="b3hrkV7SYTynuMKQ9GDM-32" value="INIT&lt;br&gt;64b" style="rounded=0;whiteSpace=wrap;html=1;fillColor=#d5e8d4;strokeColor=#82b366;strokeWidth=3;dashed=1;" parent="1" vertex="1">
          <mxGeometry x="31560" y="-4740" width="40" height="40" as="geometry" />
        </mxCell>
        <mxCell id="b3hrkV7SYTynuMKQ9GDM-33" value="TARG&lt;br&gt;64b" style="rounded=0;whiteSpace=wrap;html=1;fillColor=#d5e8d4;strokeColor=#82b366;strokeWidth=3;" parent="1" vertex="1">
          <mxGeometry x="31560" y="-4260" width="40" height="40" as="geometry" />
        </mxCell>
        <mxCell id="b3hrkV7SYTynuMKQ9GDM-34" value="INIT&lt;br&gt;512b" style="rounded=0;whiteSpace=wrap;html=1;fillColor=#f8cecc;strokeColor=#b85450;strokeWidth=3;dashed=1;" parent="1" vertex="1">
          <mxGeometry x="31560" y="-4500" width="40" height="40" as="geometry" />
        </mxCell>
        <mxCell id="b3hrkV7SYTynuMKQ9GDM-35" style="edgeStyle=none;rounded=0;orthogonalLoop=1;jettySize=auto;html=1;exitX=1;exitY=0.5;exitDx=0;exitDy=0;entryX=0.833;entryY=0;entryDx=0;entryDy=0;entryPerimeter=0;fontSize=28;" parent="1" source="b3hrkV7SYTynuMKQ9GDM-36" target="b3hrkV7SYTynuMKQ9GDM-154" edge="1">
          <mxGeometry relative="1" as="geometry" />
        </mxCell>
        <mxCell id="b3hrkV7SYTynuMKQ9GDM-36" value="INIT&lt;br&gt;64b" style="rounded=0;whiteSpace=wrap;html=1;fillColor=#d5e8d4;strokeColor=#82b366;strokeWidth=3;dashed=1;" parent="1" vertex="1">
          <mxGeometry x="31560" y="-3140" width="40" height="40" as="geometry" />
        </mxCell>
        <mxCell id="b3hrkV7SYTynuMKQ9GDM-37" value="TARG&lt;br&gt;64b" style="rounded=0;whiteSpace=wrap;html=1;fillColor=#d5e8d4;strokeColor=#82b366;strokeWidth=3;" parent="1" vertex="1">
          <mxGeometry x="31560" y="-3620" width="40" height="40" as="geometry" />
        </mxCell>
        <mxCell id="b3hrkV7SYTynuMKQ9GDM-38" value="INIT&lt;br&gt;512b" style="rounded=0;whiteSpace=wrap;html=1;fillColor=#f8cecc;strokeColor=#b85450;strokeWidth=3;dashed=1;" parent="1" vertex="1">
          <mxGeometry x="31560" y="-3380" width="40" height="40" as="geometry" />
        </mxCell>
        <mxCell id="b3hrkV7SYTynuMKQ9GDM-39" style="edgeStyle=none;rounded=0;orthogonalLoop=1;jettySize=auto;html=1;exitX=1;exitY=0.5;exitDx=0;exitDy=0;entryX=0.166;entryY=0;entryDx=0;entryDy=0;entryPerimeter=0;fontSize=28;" parent="1" source="b3hrkV7SYTynuMKQ9GDM-40" target="b3hrkV7SYTynuMKQ9GDM-154" edge="1">
          <mxGeometry relative="1" as="geometry" />
        </mxCell>
        <mxCell id="b3hrkV7SYTynuMKQ9GDM-40" value="INIT&lt;br&gt;64b" style="rounded=0;whiteSpace=wrap;html=1;fillColor=#d5e8d4;strokeColor=#82b366;strokeWidth=3;dashed=1;" parent="1" vertex="1">
          <mxGeometry x="31560" y="-2980" width="40" height="40" as="geometry" />
        </mxCell>
        <mxCell id="b3hrkV7SYTynuMKQ9GDM-41" value="TARG&lt;br&gt;64b" style="rounded=0;whiteSpace=wrap;html=1;fillColor=#d5e8d4;strokeColor=#82b366;strokeWidth=3;" parent="1" vertex="1">
          <mxGeometry x="31560" y="-2500" width="40" height="40" as="geometry" />
        </mxCell>
        <mxCell id="b3hrkV7SYTynuMKQ9GDM-42" value="INIT&lt;br&gt;512b" style="rounded=0;whiteSpace=wrap;html=1;fillColor=#f8cecc;strokeColor=#b85450;strokeWidth=3;dashed=1;" parent="1" vertex="1">
          <mxGeometry x="31560" y="-2740" width="40" height="40" as="geometry" />
        </mxCell>
        <mxCell id="b3hrkV7SYTynuMKQ9GDM-43" value="AI CORE" style="rounded=0;whiteSpace=wrap;html=1;fontSize=40;" parent="1" vertex="1">
          <mxGeometry x="33120" y="-5520" width="560" height="720" as="geometry" />
        </mxCell>
        <mxCell id="b3hrkV7SYTynuMKQ9GDM-44" value="AI CORE" style="rounded=0;whiteSpace=wrap;html=1;fontSize=40;" parent="1" vertex="1">
          <mxGeometry x="33120" y="-3760" width="560" height="720" as="geometry" />
        </mxCell>
        <mxCell id="b3hrkV7SYTynuMKQ9GDM-45" value="AI CORE" style="rounded=0;whiteSpace=wrap;html=1;fontSize=40;" parent="1" vertex="1">
          <mxGeometry x="33120" y="-3040" width="560" height="720" as="geometry" />
        </mxCell>
        <mxCell id="b3hrkV7SYTynuMKQ9GDM-46" value="AI CORE" style="rounded=0;whiteSpace=wrap;html=1;fontSize=40;" parent="1" vertex="1">
          <mxGeometry x="33120" y="-4800" width="560" height="720" as="geometry" />
        </mxCell>
        <mxCell id="b3hrkV7SYTynuMKQ9GDM-47" style="edgeStyle=none;rounded=0;orthogonalLoop=1;jettySize=auto;html=1;exitX=0;exitY=0.5;exitDx=0;exitDy=0;fontSize=28;" parent="1" source="b3hrkV7SYTynuMKQ9GDM-48" edge="1">
          <mxGeometry relative="1" as="geometry">
            <mxPoint x="33060" y="-4879.829787234043" as="targetPoint" />
          </mxGeometry>
        </mxCell>
        <mxCell id="b3hrkV7SYTynuMKQ9GDM-48" value="INIT&lt;br&gt;64b" style="rounded=0;whiteSpace=wrap;html=1;fillColor=#d5e8d4;strokeColor=#82b366;strokeWidth=3;dashed=1;" parent="1" vertex="1">
          <mxGeometry x="33120" y="-4900" width="40" height="40" as="geometry" />
        </mxCell>
        <mxCell id="b3hrkV7SYTynuMKQ9GDM-49" value="TARG&lt;br&gt;64b" style="rounded=0;whiteSpace=wrap;html=1;fillColor=#d5e8d4;strokeColor=#82b366;strokeWidth=3;" parent="1" vertex="1">
          <mxGeometry x="33120" y="-5380" width="40" height="40" as="geometry" />
        </mxCell>
        <mxCell id="b3hrkV7SYTynuMKQ9GDM-50" value="INIT&lt;br&gt;512b" style="rounded=0;whiteSpace=wrap;html=1;fillColor=#f8cecc;strokeColor=#b85450;strokeWidth=3;dashed=1;" parent="1" vertex="1">
          <mxGeometry x="33120" y="-5140" width="40" height="40" as="geometry" />
        </mxCell>
        <mxCell id="b3hrkV7SYTynuMKQ9GDM-51" style="edgeStyle=none;rounded=0;orthogonalLoop=1;jettySize=auto;html=1;exitX=0;exitY=0.5;exitDx=0;exitDy=0;fontSize=28;" parent="1" source="b3hrkV7SYTynuMKQ9GDM-52" edge="1">
          <mxGeometry relative="1" as="geometry">
            <mxPoint x="33060" y="-4719.829787234043" as="targetPoint" />
          </mxGeometry>
        </mxCell>
        <mxCell id="b3hrkV7SYTynuMKQ9GDM-52" value="INIT&lt;br&gt;64b" style="rounded=0;whiteSpace=wrap;html=1;fillColor=#d5e8d4;strokeColor=#82b366;strokeWidth=3;dashed=1;" parent="1" vertex="1">
          <mxGeometry x="33120" y="-4740" width="40" height="40" as="geometry" />
        </mxCell>
        <mxCell id="b3hrkV7SYTynuMKQ9GDM-53" value="TARG&lt;br&gt;64b" style="rounded=0;whiteSpace=wrap;html=1;fillColor=#d5e8d4;strokeColor=#82b366;strokeWidth=3;" parent="1" vertex="1">
          <mxGeometry x="33120" y="-4260" width="40" height="40" as="geometry" />
        </mxCell>
        <mxCell id="b3hrkV7SYTynuMKQ9GDM-54" value="INIT&lt;br&gt;512b" style="rounded=0;whiteSpace=wrap;html=1;fillColor=#f8cecc;strokeColor=#b85450;strokeWidth=3;dashed=1;" parent="1" vertex="1">
          <mxGeometry x="33120" y="-4500" width="40" height="40" as="geometry" />
        </mxCell>
        <mxCell id="b3hrkV7SYTynuMKQ9GDM-55" style="edgeStyle=none;rounded=0;orthogonalLoop=1;jettySize=auto;html=1;exitX=0;exitY=0.5;exitDx=0;exitDy=0;fontSize=28;" parent="1" source="b3hrkV7SYTynuMKQ9GDM-56" edge="1">
          <mxGeometry relative="1" as="geometry">
            <mxPoint x="33060" y="-3119.8297872340427" as="targetPoint" />
          </mxGeometry>
        </mxCell>
        <mxCell id="b3hrkV7SYTynuMKQ9GDM-56" value="INIT&lt;br&gt;64b" style="rounded=0;whiteSpace=wrap;html=1;fillColor=#d5e8d4;strokeColor=#82b366;strokeWidth=3;dashed=1;" parent="1" vertex="1">
          <mxGeometry x="33120" y="-3140" width="40" height="40" as="geometry" />
        </mxCell>
        <mxCell id="b3hrkV7SYTynuMKQ9GDM-57" value="TARG&lt;br&gt;64b" style="rounded=0;whiteSpace=wrap;html=1;fillColor=#d5e8d4;strokeColor=#82b366;strokeWidth=3;" parent="1" vertex="1">
          <mxGeometry x="33120" y="-3620" width="40" height="40" as="geometry" />
        </mxCell>
        <mxCell id="b3hrkV7SYTynuMKQ9GDM-58" value="INIT&lt;br&gt;512b" style="rounded=0;whiteSpace=wrap;html=1;fillColor=#f8cecc;strokeColor=#b85450;strokeWidth=3;dashed=1;" parent="1" vertex="1">
          <mxGeometry x="33120" y="-3380" width="40" height="40" as="geometry" />
        </mxCell>
        <mxCell id="b3hrkV7SYTynuMKQ9GDM-59" style="edgeStyle=none;rounded=0;orthogonalLoop=1;jettySize=auto;html=1;exitX=0;exitY=0.5;exitDx=0;exitDy=0;fontSize=28;" parent="1" source="b3hrkV7SYTynuMKQ9GDM-60" edge="1">
          <mxGeometry relative="1" as="geometry">
            <mxPoint x="33060" y="-2959.8297872340427" as="targetPoint" />
          </mxGeometry>
        </mxCell>
        <mxCell id="b3hrkV7SYTynuMKQ9GDM-60" value="INIT&lt;br&gt;64b" style="rounded=0;whiteSpace=wrap;html=1;fillColor=#d5e8d4;strokeColor=#82b366;strokeWidth=3;dashed=1;" parent="1" vertex="1">
          <mxGeometry x="33120" y="-2980" width="40" height="40" as="geometry" />
        </mxCell>
        <mxCell id="b3hrkV7SYTynuMKQ9GDM-61" value="TARG&lt;br&gt;64b" style="rounded=0;whiteSpace=wrap;html=1;fillColor=#d5e8d4;strokeColor=#82b366;strokeWidth=3;" parent="1" vertex="1">
          <mxGeometry x="33120" y="-2500" width="40" height="40" as="geometry" />
        </mxCell>
        <mxCell id="b3hrkV7SYTynuMKQ9GDM-62" value="INIT&lt;br&gt;512b" style="rounded=0;whiteSpace=wrap;html=1;fillColor=#f8cecc;strokeColor=#b85450;strokeWidth=3;dashed=1;" parent="1" vertex="1">
          <mxGeometry x="33120" y="-2740" width="40" height="40" as="geometry" />
        </mxCell>
        <mxCell id="b3hrkV7SYTynuMKQ9GDM-63" value="TARG&lt;br&gt;512b" style="rounded=0;whiteSpace=wrap;html=1;fillColor=#f8cecc;strokeColor=#b85450;strokeWidth=3;" parent="1" vertex="1">
          <mxGeometry x="32340" y="-5200" width="40" height="40" as="geometry" />
        </mxCell>
        <mxCell id="b3hrkV7SYTynuMKQ9GDM-64" value="TARG&lt;br&gt;512b" style="rounded=0;whiteSpace=wrap;html=1;fillColor=#f8cecc;strokeColor=#b85450;strokeWidth=3;" parent="1" vertex="1">
          <mxGeometry x="32340" y="-4840" width="40" height="40" as="geometry" />
        </mxCell>
        <mxCell id="b3hrkV7SYTynuMKQ9GDM-65" value="TARG&lt;br&gt;512b" style="rounded=0;whiteSpace=wrap;html=1;fillColor=#f8cecc;strokeColor=#b85450;strokeWidth=3;" parent="1" vertex="1">
          <mxGeometry x="32340" y="-4480" width="40" height="40" as="geometry" />
        </mxCell>
        <mxCell id="b3hrkV7SYTynuMKQ9GDM-66" value="TARG&lt;br&gt;512b" style="rounded=0;whiteSpace=wrap;html=1;fillColor=#f8cecc;strokeColor=#b85450;strokeWidth=3;" parent="1" vertex="1">
          <mxGeometry x="32340" y="-4120" width="40" height="40" as="geometry" />
        </mxCell>
        <mxCell id="b3hrkV7SYTynuMKQ9GDM-67" value="TARG&lt;br&gt;512b" style="rounded=0;whiteSpace=wrap;html=1;fillColor=#f8cecc;strokeColor=#b85450;strokeWidth=3;" parent="1" vertex="1">
          <mxGeometry x="32340" y="-3760" width="40" height="40" as="geometry" />
        </mxCell>
        <mxCell id="b3hrkV7SYTynuMKQ9GDM-68" value="TARG&lt;br&gt;512b" style="rounded=0;whiteSpace=wrap;html=1;fillColor=#f8cecc;strokeColor=#b85450;strokeWidth=3;" parent="1" vertex="1">
          <mxGeometry x="32340" y="-3400" width="40" height="40" as="geometry" />
        </mxCell>
        <mxCell id="b3hrkV7SYTynuMKQ9GDM-69" value="TARG&lt;br&gt;512b" style="rounded=0;whiteSpace=wrap;html=1;fillColor=#f8cecc;strokeColor=#b85450;strokeWidth=3;" parent="1" vertex="1">
          <mxGeometry x="32340" y="-3040" width="40" height="40" as="geometry" />
        </mxCell>
        <mxCell id="b3hrkV7SYTynuMKQ9GDM-70" value="TARG&lt;br&gt;512b" style="rounded=0;whiteSpace=wrap;html=1;fillColor=#f8cecc;strokeColor=#b85450;strokeWidth=3;" parent="1" vertex="1">
          <mxGeometry x="32340" y="-2680" width="40" height="40" as="geometry" />
        </mxCell>
        <mxCell id="b3hrkV7SYTynuMKQ9GDM-71" value="TARG&lt;br&gt;128b" style="rounded=0;whiteSpace=wrap;html=1;fillColor=#f8cecc;strokeColor=#b85450;strokeWidth=3;" parent="1" vertex="1">
          <mxGeometry x="30840" y="-5360" width="40" height="40" as="geometry" />
        </mxCell>
        <mxCell id="b3hrkV7SYTynuMKQ9GDM-72" value="&lt;br&gt;DDR x16" style="rounded=0;whiteSpace=wrap;html=1;fontSize=40;rotation=-180;horizontal=0;" parent="1" vertex="1">
          <mxGeometry x="30780" y="-5120" width="100" height="360" as="geometry" />
        </mxCell>
        <mxCell id="b3hrkV7SYTynuMKQ9GDM-73" value="TARG&lt;br&gt;128b" style="rounded=0;whiteSpace=wrap;html=1;fillColor=#f8cecc;strokeColor=#b85450;strokeWidth=3;" parent="1" vertex="1">
          <mxGeometry x="30840" y="-4960" width="40" height="40" as="geometry" />
        </mxCell>
        <mxCell id="b3hrkV7SYTynuMKQ9GDM-74" value="&lt;br&gt;DDR x16" style="rounded=0;whiteSpace=wrap;html=1;fontSize=40;rotation=-180;horizontal=0;" parent="1" vertex="1">
          <mxGeometry x="30780" y="-4720" width="100" height="360" as="geometry" />
        </mxCell>
        <mxCell id="b3hrkV7SYTynuMKQ9GDM-75" value="TARG&lt;br&gt;128b" style="rounded=0;whiteSpace=wrap;html=1;fillColor=#f8cecc;strokeColor=#b85450;strokeWidth=3;" parent="1" vertex="1">
          <mxGeometry x="30840" y="-4560" width="40" height="40" as="geometry" />
        </mxCell>
        <mxCell id="b3hrkV7SYTynuMKQ9GDM-76" value="&lt;br&gt;DDR x16" style="rounded=0;whiteSpace=wrap;html=1;fontSize=40;rotation=-180;horizontal=0;" parent="1" vertex="1">
          <mxGeometry x="30780" y="-4320" width="100" height="360" as="geometry" />
        </mxCell>
        <mxCell id="b3hrkV7SYTynuMKQ9GDM-77" value="TARG&lt;br&gt;128b" style="rounded=0;whiteSpace=wrap;html=1;fillColor=#f8cecc;strokeColor=#b85450;strokeWidth=3;" parent="1" vertex="1">
          <mxGeometry x="30840" y="-4160" width="40" height="40" as="geometry" />
        </mxCell>
        <mxCell id="b3hrkV7SYTynuMKQ9GDM-78" value="&lt;br&gt;DDR x16" style="rounded=0;whiteSpace=wrap;html=1;fontSize=40;rotation=-180;horizontal=0;" parent="1" vertex="1">
          <mxGeometry x="30780" y="-3880" width="100" height="360" as="geometry" />
        </mxCell>
        <mxCell id="b3hrkV7SYTynuMKQ9GDM-79" value="TARG&lt;br&gt;128b" style="rounded=0;whiteSpace=wrap;html=1;fillColor=#f8cecc;strokeColor=#b85450;strokeWidth=3;" parent="1" vertex="1">
          <mxGeometry x="30840" y="-3720" width="40" height="40" as="geometry" />
        </mxCell>
        <mxCell id="b3hrkV7SYTynuMKQ9GDM-80" value="&lt;br&gt;DDR x16" style="rounded=0;whiteSpace=wrap;html=1;fontSize=40;rotation=-180;horizontal=0;" parent="1" vertex="1">
          <mxGeometry x="30780" y="-3480" width="100" height="360" as="geometry" />
        </mxCell>
        <mxCell id="b3hrkV7SYTynuMKQ9GDM-81" value="TARG&lt;br&gt;128b" style="rounded=0;whiteSpace=wrap;html=1;fillColor=#f8cecc;strokeColor=#b85450;strokeWidth=3;" parent="1" vertex="1">
          <mxGeometry x="30840" y="-3320" width="40" height="40" as="geometry" />
        </mxCell>
        <mxCell id="b3hrkV7SYTynuMKQ9GDM-82" value="&lt;br&gt;DDR x16" style="rounded=0;whiteSpace=wrap;html=1;fontSize=40;rotation=-180;horizontal=0;" parent="1" vertex="1">
          <mxGeometry x="30780" y="-3080" width="100" height="360" as="geometry" />
        </mxCell>
        <mxCell id="b3hrkV7SYTynuMKQ9GDM-83" value="TARG&lt;br&gt;128b" style="rounded=0;whiteSpace=wrap;html=1;fillColor=#f8cecc;strokeColor=#b85450;strokeWidth=3;" parent="1" vertex="1">
          <mxGeometry x="30840" y="-2920" width="40" height="40" as="geometry" />
        </mxCell>
        <mxCell id="b3hrkV7SYTynuMKQ9GDM-84" value="&lt;br&gt;DDR x16" style="rounded=0;whiteSpace=wrap;html=1;fontSize=40;rotation=-180;horizontal=0;" parent="1" vertex="1">
          <mxGeometry x="30780" y="-2680" width="100" height="360" as="geometry" />
        </mxCell>
        <mxCell id="b3hrkV7SYTynuMKQ9GDM-85" value="TARG&lt;br&gt;128b" style="rounded=0;whiteSpace=wrap;html=1;fillColor=#f8cecc;strokeColor=#b85450;strokeWidth=3;" parent="1" vertex="1">
          <mxGeometry x="30840" y="-2520" width="40" height="40" as="geometry" />
        </mxCell>
        <mxCell id="b3hrkV7SYTynuMKQ9GDM-86" value="" style="group" parent="1" connectable="0" vertex="1">
          <mxGeometry x="34720" y="-5120" width="100" height="360" as="geometry" />
        </mxCell>
        <mxCell id="b3hrkV7SYTynuMKQ9GDM-87" value="&lt;br&gt;DDR x16" style="rounded=0;whiteSpace=wrap;html=1;fontSize=40;rotation=0;horizontal=0;" parent="b3hrkV7SYTynuMKQ9GDM-86" vertex="1">
          <mxGeometry width="100" height="360" as="geometry" />
        </mxCell>
        <mxCell id="b3hrkV7SYTynuMKQ9GDM-88" value="TARG&lt;br&gt;128b" style="rounded=0;whiteSpace=wrap;html=1;fillColor=#f8cecc;strokeColor=#b85450;strokeWidth=3;" parent="b3hrkV7SYTynuMKQ9GDM-86" vertex="1">
          <mxGeometry y="160" width="40" height="40" as="geometry" />
        </mxCell>
        <mxCell id="b3hrkV7SYTynuMKQ9GDM-89" value="" style="group" parent="1" connectable="0" vertex="1">
          <mxGeometry x="34720" y="-4720" width="100" height="360" as="geometry" />
        </mxCell>
        <mxCell id="b3hrkV7SYTynuMKQ9GDM-90" value="&lt;br&gt;DDR x16" style="rounded=0;whiteSpace=wrap;html=1;fontSize=40;rotation=0;horizontal=0;" parent="b3hrkV7SYTynuMKQ9GDM-89" vertex="1">
          <mxGeometry width="100" height="360" as="geometry" />
        </mxCell>
        <mxCell id="b3hrkV7SYTynuMKQ9GDM-91" value="TARG&lt;br&gt;128b" style="rounded=0;whiteSpace=wrap;html=1;fillColor=#f8cecc;strokeColor=#b85450;strokeWidth=3;" parent="b3hrkV7SYTynuMKQ9GDM-89" vertex="1">
          <mxGeometry y="160" width="40" height="40" as="geometry" />
        </mxCell>
        <mxCell id="b3hrkV7SYTynuMKQ9GDM-92" value="" style="group" parent="1" connectable="0" vertex="1">
          <mxGeometry x="34720" y="-4320" width="100" height="360" as="geometry" />
        </mxCell>
        <mxCell id="b3hrkV7SYTynuMKQ9GDM-93" value="&lt;br&gt;DDR x16" style="rounded=0;whiteSpace=wrap;html=1;fontSize=40;rotation=0;horizontal=0;" parent="b3hrkV7SYTynuMKQ9GDM-92" vertex="1">
          <mxGeometry width="100" height="360" as="geometry" />
        </mxCell>
        <mxCell id="b3hrkV7SYTynuMKQ9GDM-94" value="TARG&lt;br&gt;128b" style="rounded=0;whiteSpace=wrap;html=1;fillColor=#f8cecc;strokeColor=#b85450;strokeWidth=3;" parent="b3hrkV7SYTynuMKQ9GDM-92" vertex="1">
          <mxGeometry y="160" width="40" height="40" as="geometry" />
        </mxCell>
        <mxCell id="b3hrkV7SYTynuMKQ9GDM-95" value="" style="group" parent="1" connectable="0" vertex="1">
          <mxGeometry x="34720" y="-3880" width="100" height="360" as="geometry" />
        </mxCell>
        <mxCell id="b3hrkV7SYTynuMKQ9GDM-96" value="&lt;br&gt;DDR x16" style="rounded=0;whiteSpace=wrap;html=1;fontSize=40;rotation=0;horizontal=0;" parent="b3hrkV7SYTynuMKQ9GDM-95" vertex="1">
          <mxGeometry width="100" height="360" as="geometry" />
        </mxCell>
        <mxCell id="b3hrkV7SYTynuMKQ9GDM-97" value="TARG&lt;br&gt;128b" style="rounded=0;whiteSpace=wrap;html=1;fillColor=#f8cecc;strokeColor=#b85450;strokeWidth=3;" parent="b3hrkV7SYTynuMKQ9GDM-95" vertex="1">
          <mxGeometry y="160" width="40" height="40" as="geometry" />
        </mxCell>
        <mxCell id="b3hrkV7SYTynuMKQ9GDM-98" value="" style="group" parent="1" connectable="0" vertex="1">
          <mxGeometry x="34720" y="-3480" width="100" height="360" as="geometry" />
        </mxCell>
        <mxCell id="b3hrkV7SYTynuMKQ9GDM-99" value="&lt;br&gt;DDR x16" style="rounded=0;whiteSpace=wrap;html=1;fontSize=40;rotation=0;horizontal=0;" parent="b3hrkV7SYTynuMKQ9GDM-98" vertex="1">
          <mxGeometry width="100" height="360" as="geometry" />
        </mxCell>
        <mxCell id="b3hrkV7SYTynuMKQ9GDM-100" value="TARG&lt;br&gt;128b" style="rounded=0;whiteSpace=wrap;html=1;fillColor=#f8cecc;strokeColor=#b85450;strokeWidth=3;" parent="b3hrkV7SYTynuMKQ9GDM-98" vertex="1">
          <mxGeometry y="160" width="40" height="40" as="geometry" />
        </mxCell>
        <mxCell id="b3hrkV7SYTynuMKQ9GDM-101" value="" style="group" parent="1" connectable="0" vertex="1">
          <mxGeometry x="34720" y="-3080" width="100" height="360" as="geometry" />
        </mxCell>
        <mxCell id="b3hrkV7SYTynuMKQ9GDM-102" value="&lt;br&gt;DDR x16" style="rounded=0;whiteSpace=wrap;html=1;fontSize=40;rotation=0;horizontal=0;" parent="b3hrkV7SYTynuMKQ9GDM-101" vertex="1">
          <mxGeometry width="100" height="360" as="geometry" />
        </mxCell>
        <mxCell id="b3hrkV7SYTynuMKQ9GDM-103" value="TARG&lt;br&gt;128b" style="rounded=0;whiteSpace=wrap;html=1;fillColor=#f8cecc;strokeColor=#b85450;strokeWidth=3;" parent="b3hrkV7SYTynuMKQ9GDM-101" vertex="1">
          <mxGeometry y="160" width="40" height="40" as="geometry" />
        </mxCell>
        <mxCell id="b3hrkV7SYTynuMKQ9GDM-104" value="" style="group" parent="1" connectable="0" vertex="1">
          <mxGeometry x="34720" y="-2680" width="100" height="360" as="geometry" />
        </mxCell>
        <mxCell id="b3hrkV7SYTynuMKQ9GDM-105" value="&lt;br&gt;DDR x16" style="rounded=0;whiteSpace=wrap;html=1;fontSize=40;rotation=0;horizontal=0;" parent="b3hrkV7SYTynuMKQ9GDM-104" vertex="1">
          <mxGeometry width="100" height="360" as="geometry" />
        </mxCell>
        <mxCell id="b3hrkV7SYTynuMKQ9GDM-106" value="TARG&lt;br&gt;128b" style="rounded=0;whiteSpace=wrap;html=1;fillColor=#f8cecc;strokeColor=#b85450;strokeWidth=3;" parent="b3hrkV7SYTynuMKQ9GDM-104" vertex="1">
          <mxGeometry y="160" width="40" height="40" as="geometry" />
        </mxCell>
        <mxCell id="b3hrkV7SYTynuMKQ9GDM-107" value="INIT&lt;br&gt;512b" style="rounded=0;whiteSpace=wrap;html=1;fillColor=#f8cecc;strokeColor=#b85450;strokeWidth=3;dashed=1;" parent="1" vertex="1">
          <mxGeometry x="31920" y="-4020" width="40" height="40" as="geometry" />
        </mxCell>
        <mxCell id="b3hrkV7SYTynuMKQ9GDM-108" value="INIT&lt;br&gt;512b" style="rounded=0;whiteSpace=wrap;html=1;fillColor=#f8cecc;strokeColor=#b85450;strokeWidth=3;dashed=1;" parent="1" vertex="1">
          <mxGeometry x="31960" y="-4020" width="40" height="40" as="geometry" />
        </mxCell>
        <mxCell id="b3hrkV7SYTynuMKQ9GDM-109" value="INIT&lt;br&gt;512b" style="rounded=0;whiteSpace=wrap;html=1;fillColor=#f8cecc;strokeColor=#b85450;strokeWidth=3;dashed=1;" parent="1" vertex="1">
          <mxGeometry x="32760" y="-4020" width="40" height="40" as="geometry" />
        </mxCell>
        <mxCell id="b3hrkV7SYTynuMKQ9GDM-110" value="INIT&lt;br&gt;512b" style="rounded=0;whiteSpace=wrap;html=1;fillColor=#f8cecc;strokeColor=#b85450;strokeWidth=3;dashed=1;" parent="1" vertex="1">
          <mxGeometry x="32720" y="-4020" width="40" height="40" as="geometry" />
        </mxCell>
        <mxCell id="b3hrkV7SYTynuMKQ9GDM-143" value="HTF&lt;br&gt;TARG" style="rounded=0;whiteSpace=wrap;html=1;fillColor=#fff2cc;strokeColor=#d6b656;strokeWidth=3;" parent="1" vertex="1">
          <mxGeometry x="33560" y="-3900" width="40" height="40" as="geometry" />
        </mxCell>
        <mxCell id="b3hrkV7SYTynuMKQ9GDM-144" value="HTF&lt;br&gt;INIT" style="rounded=0;whiteSpace=wrap;html=1;fillColor=#fff2cc;strokeColor=#d6b656;strokeWidth=3;dashed=1;" parent="1" vertex="1">
          <mxGeometry x="33640" y="-3900" width="40" height="40" as="geometry" />
        </mxCell>
        <mxCell id="b3hrkV7SYTynuMKQ9GDM-145" value="TARG&lt;br&gt;64b" style="rounded=0;whiteSpace=wrap;html=1;fillColor=#d5e8d4;strokeColor=#82b366;strokeWidth=3;" parent="1" vertex="1">
          <mxGeometry x="32300" y="-4020" width="40" height="40" as="geometry" />
        </mxCell>
        <mxCell id="b3hrkV7SYTynuMKQ9GDM-146" value="TARG&lt;br&gt;64b" style="rounded=0;whiteSpace=wrap;html=1;fillColor=#d5e8d4;strokeColor=#82b366;strokeWidth=3;" parent="1" vertex="1">
          <mxGeometry x="32380" y="-4020" width="40" height="40" as="geometry" />
        </mxCell>
        <mxCell id="b3hrkV7SYTynuMKQ9GDM-147" style="edgeStyle=none;rounded=0;orthogonalLoop=1;jettySize=auto;html=1;exitX=0;exitY=0.5;exitDx=0;exitDy=0;entryX=0.037;entryY=-0.078;entryDx=0;entryDy=0;entryPerimeter=0;fontSize=28;" parent="1" source="b3hrkV7SYTynuMKQ9GDM-148" target="b3hrkV7SYTynuMKQ9GDM-172" edge="1">
          <mxGeometry relative="1" as="geometry" />
        </mxCell>
        <mxCell id="b3hrkV7SYTynuMKQ9GDM-148" value="&lt;span style=&quot;font-size: 40px;&quot;&gt;2x1&lt;/span&gt;" style="shape=hexagon;perimeter=hexagonPerimeter2;whiteSpace=wrap;html=1;fixedSize=1;fillColor=#ffff88;strokeColor=#36393d;rotation=-90;" parent="1" vertex="1">
          <mxGeometry x="31560" y="-4820" width="240" height="40" as="geometry" />
        </mxCell>
        <mxCell id="b3hrkV7SYTynuMKQ9GDM-149" style="rounded=0;orthogonalLoop=1;jettySize=auto;html=1;exitX=1;exitY=0.25;exitDx=0;exitDy=0;entryX=1;entryY=0.5;entryDx=0;entryDy=0;fontSize=28;" parent="1" source="b3hrkV7SYTynuMKQ9GDM-152" target="b3hrkV7SYTynuMKQ9GDM-29" edge="1">
          <mxGeometry relative="1" as="geometry" />
        </mxCell>
        <mxCell id="b3hrkV7SYTynuMKQ9GDM-150" style="edgeStyle=none;rounded=0;orthogonalLoop=1;jettySize=auto;html=1;exitX=0;exitY=0.25;exitDx=0;exitDy=0;entryX=1;entryY=0.5;entryDx=0;entryDy=0;fontSize=28;" parent="1" source="b3hrkV7SYTynuMKQ9GDM-152" target="b3hrkV7SYTynuMKQ9GDM-33" edge="1">
          <mxGeometry relative="1" as="geometry" />
        </mxCell>
        <mxCell id="b3hrkV7SYTynuMKQ9GDM-151" style="edgeStyle=none;rounded=0;orthogonalLoop=1;jettySize=auto;html=1;exitX=0.11;exitY=-0.036;exitDx=0;exitDy=0;entryX=0;entryY=0.5;entryDx=0;entryDy=0;fontSize=28;exitPerimeter=0;" parent="1" source="b3hrkV7SYTynuMKQ9GDM-172" target="b3hrkV7SYTynuMKQ9GDM-152" edge="1">
          <mxGeometry relative="1" as="geometry" />
        </mxCell>
        <mxCell id="b3hrkV7SYTynuMKQ9GDM-152" value="&lt;span style=&quot;font-size: 40px;&quot;&gt;1x2&lt;br&gt;&lt;/span&gt;" style="shape=hexagon;perimeter=hexagonPerimeter2;whiteSpace=wrap;html=1;fixedSize=1;fillColor=#ffff88;strokeColor=#36393d;rotation=-90;" parent="1" vertex="1">
          <mxGeometry x="31720" y="-4820" width="240" height="40" as="geometry" />
        </mxCell>
        <mxCell id="b3hrkV7SYTynuMKQ9GDM-153" style="rounded=0;orthogonalLoop=1;jettySize=auto;html=1;exitX=1;exitY=0.5;exitDx=0;exitDy=0;entryX=0.037;entryY=1.047;entryDx=0;entryDy=0;entryPerimeter=0;fontSize=28;" parent="1" source="b3hrkV7SYTynuMKQ9GDM-154" target="b3hrkV7SYTynuMKQ9GDM-172" edge="1">
          <mxGeometry relative="1" as="geometry" />
        </mxCell>
        <mxCell id="b3hrkV7SYTynuMKQ9GDM-154" value="&lt;span style=&quot;font-size: 40px;&quot;&gt;2x1&lt;/span&gt;" style="shape=hexagon;perimeter=hexagonPerimeter2;whiteSpace=wrap;html=1;fixedSize=1;fillColor=#ffff88;strokeColor=#36393d;rotation=-90;" parent="1" vertex="1">
          <mxGeometry x="31560" y="-3060" width="240" height="40" as="geometry" />
        </mxCell>
        <mxCell id="b3hrkV7SYTynuMKQ9GDM-155" style="edgeStyle=none;rounded=0;orthogonalLoop=1;jettySize=auto;html=1;exitX=1;exitY=0.25;exitDx=0;exitDy=0;entryX=1;entryY=0.5;entryDx=0;entryDy=0;fontSize=28;" parent="1" source="b3hrkV7SYTynuMKQ9GDM-158" target="b3hrkV7SYTynuMKQ9GDM-37" edge="1">
          <mxGeometry relative="1" as="geometry" />
        </mxCell>
        <mxCell id="b3hrkV7SYTynuMKQ9GDM-156" style="edgeStyle=none;rounded=0;orthogonalLoop=1;jettySize=auto;html=1;exitX=0;exitY=0.25;exitDx=0;exitDy=0;entryX=1;entryY=0.5;entryDx=0;entryDy=0;fontSize=28;" parent="1" source="b3hrkV7SYTynuMKQ9GDM-158" target="b3hrkV7SYTynuMKQ9GDM-41" edge="1">
          <mxGeometry relative="1" as="geometry" />
        </mxCell>
        <mxCell id="b3hrkV7SYTynuMKQ9GDM-157" style="edgeStyle=none;rounded=0;orthogonalLoop=1;jettySize=auto;html=1;exitX=0.11;exitY=1.089;exitDx=0;exitDy=0;entryX=1;entryY=0.5;entryDx=0;entryDy=0;fontSize=28;exitPerimeter=0;" parent="1" source="b3hrkV7SYTynuMKQ9GDM-172" target="b3hrkV7SYTynuMKQ9GDM-158" edge="1">
          <mxGeometry relative="1" as="geometry" />
        </mxCell>
        <mxCell id="b3hrkV7SYTynuMKQ9GDM-158" value="&lt;span style=&quot;font-size: 40px;&quot;&gt;1x2&lt;br&gt;&lt;/span&gt;" style="shape=hexagon;perimeter=hexagonPerimeter2;whiteSpace=wrap;html=1;fixedSize=1;fillColor=#ffff88;strokeColor=#36393d;rotation=-90;" parent="1" vertex="1">
          <mxGeometry x="31720" y="-3060" width="240" height="40" as="geometry" />
        </mxCell>
        <mxCell id="b3hrkV7SYTynuMKQ9GDM-159" style="edgeStyle=none;rounded=0;orthogonalLoop=1;jettySize=auto;html=1;exitX=1;exitY=0.5;exitDx=0;exitDy=0;entryX=0.661;entryY=1;entryDx=0;entryDy=0;entryPerimeter=0;fontSize=28;" parent="1" source="b3hrkV7SYTynuMKQ9GDM-160" target="b3hrkV7SYTynuMKQ9GDM-172" edge="1">
          <mxGeometry relative="1" as="geometry" />
        </mxCell>
        <mxCell id="b3hrkV7SYTynuMKQ9GDM-160" value="&lt;span style=&quot;font-size: 40px;&quot;&gt;2x1&lt;/span&gt;" style="shape=hexagon;perimeter=hexagonPerimeter2;whiteSpace=wrap;html=1;fixedSize=1;fillColor=#ffff88;strokeColor=#36393d;rotation=-90;" parent="1" vertex="1">
          <mxGeometry x="32920" y="-3060" width="240" height="40" as="geometry" />
        </mxCell>
        <mxCell id="b3hrkV7SYTynuMKQ9GDM-161" style="edgeStyle=none;rounded=0;orthogonalLoop=1;jettySize=auto;html=1;exitX=1;exitY=0.75;exitDx=0;exitDy=0;entryX=0;entryY=0.5;entryDx=0;entryDy=0;fontSize=28;" parent="1" source="b3hrkV7SYTynuMKQ9GDM-164" target="b3hrkV7SYTynuMKQ9GDM-57" edge="1">
          <mxGeometry relative="1" as="geometry" />
        </mxCell>
        <mxCell id="b3hrkV7SYTynuMKQ9GDM-162" style="edgeStyle=none;rounded=0;orthogonalLoop=1;jettySize=auto;html=1;exitX=0;exitY=0.75;exitDx=0;exitDy=0;entryX=0;entryY=0.5;entryDx=0;entryDy=0;fontSize=28;" parent="1" source="b3hrkV7SYTynuMKQ9GDM-164" target="b3hrkV7SYTynuMKQ9GDM-61" edge="1">
          <mxGeometry relative="1" as="geometry" />
        </mxCell>
        <mxCell id="b3hrkV7SYTynuMKQ9GDM-163" style="edgeStyle=none;rounded=0;orthogonalLoop=1;jettySize=auto;html=1;exitX=0.586;exitY=1.139;exitDx=0;exitDy=0;entryX=1;entryY=0.5;entryDx=0;entryDy=0;fontSize=28;exitPerimeter=0;" parent="1" source="b3hrkV7SYTynuMKQ9GDM-172" target="b3hrkV7SYTynuMKQ9GDM-164" edge="1">
          <mxGeometry relative="1" as="geometry" />
        </mxCell>
        <mxCell id="b3hrkV7SYTynuMKQ9GDM-164" value="&lt;span style=&quot;font-size: 40px;&quot;&gt;1x2&lt;br&gt;&lt;/span&gt;" style="shape=hexagon;perimeter=hexagonPerimeter2;whiteSpace=wrap;html=1;fixedSize=1;fillColor=#ffff88;strokeColor=#36393d;rotation=-90;" parent="1" vertex="1">
          <mxGeometry x="32760" y="-3060" width="240" height="40" as="geometry" />
        </mxCell>
        <mxCell id="b3hrkV7SYTynuMKQ9GDM-165" style="edgeStyle=none;rounded=0;orthogonalLoop=1;jettySize=auto;html=1;exitX=0;exitY=0.5;exitDx=0;exitDy=0;fontSize=28;entryX=0.66;entryY=-0.009;entryDx=0;entryDy=0;entryPerimeter=0;" parent="1" source="b3hrkV7SYTynuMKQ9GDM-166" target="b3hrkV7SYTynuMKQ9GDM-172" edge="1">
          <mxGeometry relative="1" as="geometry">
            <mxPoint x="33040" y="-3960" as="targetPoint" />
          </mxGeometry>
        </mxCell>
        <mxCell id="b3hrkV7SYTynuMKQ9GDM-166" value="&lt;span style=&quot;font-size: 40px;&quot;&gt;2x1&lt;/span&gt;" style="shape=hexagon;perimeter=hexagonPerimeter2;whiteSpace=wrap;html=1;fixedSize=1;fillColor=#ffff88;strokeColor=#36393d;rotation=-90;" parent="1" vertex="1">
          <mxGeometry x="32920" y="-4820" width="240" height="40" as="geometry" />
        </mxCell>
        <mxCell id="b3hrkV7SYTynuMKQ9GDM-167" style="edgeStyle=none;rounded=0;orthogonalLoop=1;jettySize=auto;html=1;exitX=1;exitY=0.75;exitDx=0;exitDy=0;entryX=0;entryY=0.5;entryDx=0;entryDy=0;fontSize=28;" parent="1" source="b3hrkV7SYTynuMKQ9GDM-170" target="b3hrkV7SYTynuMKQ9GDM-49" edge="1">
          <mxGeometry relative="1" as="geometry" />
        </mxCell>
        <mxCell id="b3hrkV7SYTynuMKQ9GDM-168" style="edgeStyle=none;rounded=0;orthogonalLoop=1;jettySize=auto;html=1;exitX=0;exitY=0.75;exitDx=0;exitDy=0;entryX=0;entryY=0.5;entryDx=0;entryDy=0;fontSize=28;" parent="1" source="b3hrkV7SYTynuMKQ9GDM-170" target="b3hrkV7SYTynuMKQ9GDM-53" edge="1">
          <mxGeometry relative="1" as="geometry" />
        </mxCell>
        <mxCell id="b3hrkV7SYTynuMKQ9GDM-169" style="edgeStyle=none;rounded=0;orthogonalLoop=1;jettySize=auto;html=1;entryX=0;entryY=0.5;entryDx=0;entryDy=0;fontSize=28;exitX=0.587;exitY=-0.039;exitDx=0;exitDy=0;exitPerimeter=0;" parent="1" source="b3hrkV7SYTynuMKQ9GDM-172" target="b3hrkV7SYTynuMKQ9GDM-170" edge="1">
          <mxGeometry relative="1" as="geometry">
            <mxPoint x="32880" y="-3960" as="sourcePoint" />
          </mxGeometry>
        </mxCell>
        <mxCell id="b3hrkV7SYTynuMKQ9GDM-170" value="&lt;span style=&quot;font-size: 40px;&quot;&gt;1x2&lt;br&gt;&lt;/span&gt;" style="shape=hexagon;perimeter=hexagonPerimeter2;whiteSpace=wrap;html=1;fixedSize=1;fillColor=#ffff88;strokeColor=#36393d;rotation=-90;" parent="1" vertex="1">
          <mxGeometry x="32760" y="-4820" width="240" height="40" as="geometry" />
        </mxCell>
        <mxCell id="b3hrkV7SYTynuMKQ9GDM-171" value="&lt;span style=&quot;font-size: 40px;&quot;&gt;1x2&lt;br&gt;&lt;/span&gt;" style="shape=hexagon;perimeter=hexagonPerimeter2;whiteSpace=wrap;html=1;fixedSize=1;fillColor=#ffff88;strokeColor=#36393d;rotation=0;" parent="1" vertex="1">
          <mxGeometry x="32280" y="-3980" width="160" height="40" as="geometry" />
        </mxCell>
        <mxCell id="nOckJOkMF16lbf6hdiKL-43" style="edgeStyle=orthogonalEdgeStyle;rounded=0;orthogonalLoop=1;jettySize=auto;html=1;exitX=1;exitY=0.5;exitDx=0;exitDy=0;entryX=0;entryY=0.5;entryDx=0;entryDy=0;targetPerimeterSpacing=0;startArrow=classic;startFill=1;" edge="1" parent="1" source="b3hrkV7SYTynuMKQ9GDM-172" target="nOckJOkMF16lbf6hdiKL-37">
          <mxGeometry relative="1" as="geometry" />
        </mxCell>
        <mxCell id="b3hrkV7SYTynuMKQ9GDM-172" value="&lt;span style=&quot;font-size: 40px;&quot;&gt;6x9, does not have to be full crossbar, could be 6x1 &amp;lt;-&amp;gt; 1x9&lt;br&gt;&lt;/span&gt;" style="shape=hexagon;perimeter=hexagonPerimeter2;whiteSpace=wrap;html=1;fixedSize=1;fillColor=#ffff88;strokeColor=#36393d;rotation=0;" parent="1" vertex="1">
          <mxGeometry x="31600" y="-3940" width="2180" height="40" as="geometry" />
        </mxCell>
        <mxCell id="b3hrkV7SYTynuMKQ9GDM-176" value="" style="rounded=0;whiteSpace=wrap;html=1;fillColor=#f8cecc;strokeColor=#b85450;strokeWidth=3;dashed=1;" parent="1" vertex="1">
          <mxGeometry x="30800.25" y="-5640" width="40" height="40" as="geometry" />
        </mxCell>
        <mxCell id="b3hrkV7SYTynuMKQ9GDM-177" value="HT AXI INIT" style="text;html=1;align=right;verticalAlign=middle;resizable=0;points=[];autosize=1;strokeColor=none;fillColor=none;fontSize=22;" parent="1" vertex="1">
          <mxGeometry x="30840.25" y="-5640" width="160" height="40" as="geometry" />
        </mxCell>
        <mxCell id="b3hrkV7SYTynuMKQ9GDM-178" value="" style="rounded=0;whiteSpace=wrap;html=1;fillColor=#f8cecc;strokeColor=#b85450;strokeWidth=3;" parent="1" vertex="1">
          <mxGeometry x="31040.13" y="-5640" width="40" height="40" as="geometry" />
        </mxCell>
        <mxCell id="b3hrkV7SYTynuMKQ9GDM-179" value="HT AXI TARGET" style="text;html=1;align=right;verticalAlign=middle;resizable=0;points=[];autosize=1;strokeColor=none;fillColor=none;fontSize=22;" parent="1" vertex="1">
          <mxGeometry x="31055.13" y="-5640" width="200" height="40" as="geometry" />
        </mxCell>
        <mxCell id="b3hrkV7SYTynuMKQ9GDM-180" value="" style="rounded=0;whiteSpace=wrap;html=1;fillColor=#d5e8d4;strokeColor=#82b366;strokeWidth=3;dashed=1;" parent="1" vertex="1">
          <mxGeometry x="31280.25" y="-5640" width="40" height="40" as="geometry" />
        </mxCell>
        <mxCell id="b3hrkV7SYTynuMKQ9GDM-181" value="LL AXI INIT" style="text;html=1;align=right;verticalAlign=middle;resizable=0;points=[];autosize=1;strokeColor=none;fillColor=none;fontSize=22;" parent="1" vertex="1">
          <mxGeometry x="31315.25" y="-5640" width="160" height="40" as="geometry" />
        </mxCell>
        <mxCell id="b3hrkV7SYTynuMKQ9GDM-182" value="" style="rounded=0;whiteSpace=wrap;html=1;fillColor=#d5e8d4;strokeColor=#82b366;strokeWidth=3;" parent="1" vertex="1">
          <mxGeometry x="31520.25" y="-5640" width="40" height="40" as="geometry" />
        </mxCell>
        <mxCell id="b3hrkV7SYTynuMKQ9GDM-183" value="LL AXI TARGET" style="text;html=1;align=right;verticalAlign=middle;resizable=0;points=[];autosize=1;strokeColor=none;fillColor=none;fontSize=22;" parent="1" vertex="1">
          <mxGeometry x="31530.25" y="-5640" width="200" height="40" as="geometry" />
        </mxCell>
        <mxCell id="b3hrkV7SYTynuMKQ9GDM-184" value="" style="rounded=0;whiteSpace=wrap;html=1;fillColor=#dae8fc;strokeColor=#6c8ebf;strokeWidth=3;" parent="1" vertex="1">
          <mxGeometry x="31760" y="-5640" width="40" height="40" as="geometry" />
        </mxCell>
        <mxCell id="b3hrkV7SYTynuMKQ9GDM-185" value="LL APB TARGET" style="text;html=1;align=right;verticalAlign=middle;resizable=0;points=[];autosize=1;strokeColor=none;fillColor=none;fontSize=22;" parent="1" vertex="1">
          <mxGeometry x="31780" y="-5640" width="200" height="40" as="geometry" />
        </mxCell>
        <mxCell id="b3hrkV7SYTynuMKQ9GDM-186" value="LL NOC ELEMENT" style="text;html=1;align=right;verticalAlign=middle;resizable=0;points=[];autosize=1;strokeColor=none;fillColor=none;fontSize=22;" parent="1" vertex="1">
          <mxGeometry x="32080.25" y="-5640" width="220" height="40" as="geometry" />
        </mxCell>
        <mxCell id="b3hrkV7SYTynuMKQ9GDM-187" value="" style="shape=hexagon;perimeter=hexagonPerimeter2;whiteSpace=wrap;html=1;fixedSize=1;fillColor=#ffff88;strokeColor=#36393d;" parent="1" vertex="1">
          <mxGeometry x="32000.25" y="-5640" width="80" height="40" as="geometry" />
        </mxCell>
        <mxCell id="b3hrkV7SYTynuMKQ9GDM-188" value="LLF with &amp;nbsp;dedicated crossbar for APU + SPM + ..." style="text;html=1;strokeColor=none;fillColor=none;align=left;verticalAlign=middle;whiteSpace=wrap;rounded=0;fontSize=50;fontStyle=0" parent="1" vertex="1">
          <mxGeometry x="30800" y="-5760" width="1280" height="80" as="geometry" />
        </mxCell>
        <mxCell id="OKuR6zFrhgNsw4tRP8yM-33" style="edgeStyle=orthogonalEdgeStyle;rounded=0;orthogonalLoop=1;jettySize=auto;html=1;entryX=0;entryY=0.5;entryDx=0;entryDy=0;exitX=0.972;exitY=0.006;exitDx=0;exitDy=0;exitPerimeter=0;" parent="1" source="b3hrkV7SYTynuMKQ9GDM-172" target="nOckJOkMF16lbf6hdiKL-29" edge="1">
          <mxGeometry relative="1" as="geometry">
            <mxPoint x="33700" y="-3980" as="sourcePoint" />
            <mxPoint x="34000" y="-5500" as="targetPoint" />
            <Array as="points">
              <mxPoint x="33719" y="-3980" />
              <mxPoint x="33720" y="-3980" />
              <mxPoint x="33720" y="-5500" />
            </Array>
          </mxGeometry>
        </mxCell>
        <mxCell id="nOckJOkMF16lbf6hdiKL-1" value="SYS-SPM" style="rounded=0;whiteSpace=wrap;html=1;fontSize=40;" vertex="1" parent="1">
          <mxGeometry x="33840" y="-4300" width="720" height="220" as="geometry" />
        </mxCell>
        <mxCell id="nOckJOkMF16lbf6hdiKL-2" value="DEC" style="rounded=0;whiteSpace=wrap;html=1;fontSize=40;" vertex="1" parent="1">
          <mxGeometry x="33840" y="-3500" width="720" height="140" as="geometry" />
        </mxCell>
        <mxCell id="nOckJOkMF16lbf6hdiKL-3" value="APU" style="rounded=0;whiteSpace=wrap;html=1;fontSize=40;" vertex="1" parent="1">
          <mxGeometry x="33840" y="-3760" width="720" height="260" as="geometry" />
        </mxCell>
        <mxCell id="nOckJOkMF16lbf6hdiKL-4" value="&lt;font style=&quot;font-size: 40px;&quot;&gt;PVE&lt;/font&gt;" style="rounded=0;whiteSpace=wrap;html=1;" vertex="1" parent="1">
          <mxGeometry x="33840" y="-5320" width="720" height="1020" as="geometry" />
        </mxCell>
        <mxCell id="nOckJOkMF16lbf6hdiKL-5" value="&lt;font style=&quot;font-size: 40px;&quot;&gt;PVE&lt;/font&gt;" style="rounded=0;whiteSpace=wrap;html=1;" vertex="1" parent="1">
          <mxGeometry x="33840" y="-3360" width="720" height="1040" as="geometry" />
        </mxCell>
        <mxCell id="nOckJOkMF16lbf6hdiKL-6" value="SOC-IO" style="rounded=0;whiteSpace=wrap;html=1;fontSize=40;" vertex="1" parent="1">
          <mxGeometry x="34260" y="-5520" width="300" height="80" as="geometry" />
        </mxCell>
        <mxCell id="nOckJOkMF16lbf6hdiKL-9" value="INIT&lt;br&gt;512b" style="rounded=0;whiteSpace=wrap;html=1;fillColor=#f8cecc;strokeColor=#b85450;strokeWidth=3;dashed=1;" vertex="1" parent="1">
          <mxGeometry x="33840" y="-4380" width="40" height="40" as="geometry" />
        </mxCell>
        <mxCell id="nOckJOkMF16lbf6hdiKL-10" value="TARG&lt;br&gt;64b" style="rounded=0;whiteSpace=wrap;html=1;fillColor=#d5e8d4;strokeColor=#82b366;strokeWidth=3;" vertex="1" parent="1">
          <mxGeometry x="33840" y="-4540" width="40" height="40" as="geometry" />
        </mxCell>
        <mxCell id="nOckJOkMF16lbf6hdiKL-42" style="edgeStyle=orthogonalEdgeStyle;rounded=0;orthogonalLoop=1;jettySize=auto;html=1;exitX=0;exitY=0.5;exitDx=0;exitDy=0;entryX=0;entryY=0.25;entryDx=0;entryDy=0;" edge="1" parent="1" source="nOckJOkMF16lbf6hdiKL-11" target="nOckJOkMF16lbf6hdiKL-37">
          <mxGeometry relative="1" as="geometry">
            <Array as="points">
              <mxPoint x="33820" y="-4440" />
              <mxPoint x="33820" y="-3930" />
            </Array>
          </mxGeometry>
        </mxCell>
        <mxCell id="nOckJOkMF16lbf6hdiKL-11" value="INIT&lt;br&gt;64b" style="rounded=0;whiteSpace=wrap;html=1;fillColor=#d5e8d4;strokeColor=#82b366;strokeWidth=3;dashed=1;" vertex="1" parent="1">
          <mxGeometry x="33840" y="-4460" width="40" height="40" as="geometry" />
        </mxCell>
        <mxCell id="nOckJOkMF16lbf6hdiKL-12" value="INIT&lt;br&gt;512b" style="rounded=0;whiteSpace=wrap;html=1;fillColor=#f8cecc;strokeColor=#b85450;strokeWidth=3;dashed=1;" vertex="1" parent="1">
          <mxGeometry x="33840" y="-3260" width="40" height="40" as="geometry" />
        </mxCell>
        <mxCell id="nOckJOkMF16lbf6hdiKL-13" value="TARG&lt;br&gt;64b" style="rounded=0;whiteSpace=wrap;html=1;fillColor=#d5e8d4;strokeColor=#82b366;strokeWidth=3;" vertex="1" parent="1">
          <mxGeometry x="33840" y="-3100" width="40" height="40" as="geometry" />
        </mxCell>
        <mxCell id="nOckJOkMF16lbf6hdiKL-41" style="edgeStyle=orthogonalEdgeStyle;rounded=0;orthogonalLoop=1;jettySize=auto;html=1;exitX=0;exitY=0.5;exitDx=0;exitDy=0;entryX=0;entryY=0.75;entryDx=0;entryDy=0;" edge="1" parent="1" source="nOckJOkMF16lbf6hdiKL-14" target="nOckJOkMF16lbf6hdiKL-37">
          <mxGeometry relative="1" as="geometry">
            <Array as="points">
              <mxPoint x="33820" y="-3160" />
              <mxPoint x="33820" y="-3910" />
            </Array>
          </mxGeometry>
        </mxCell>
        <mxCell id="nOckJOkMF16lbf6hdiKL-14" value="INIT&lt;br&gt;64b" style="rounded=0;whiteSpace=wrap;html=1;fillColor=#d5e8d4;strokeColor=#82b366;strokeWidth=3;dashed=1;" vertex="1" parent="1">
          <mxGeometry x="33840" y="-3180" width="40" height="40" as="geometry" />
        </mxCell>
        <mxCell id="nOckJOkMF16lbf6hdiKL-16" value="INIT&lt;br&gt;256b" style="rounded=0;whiteSpace=wrap;html=1;fillColor=#f8cecc;strokeColor=#b85450;strokeWidth=3;dashed=1;" vertex="1" parent="1">
          <mxGeometry x="33980" y="-3760" width="40" height="40" as="geometry" />
        </mxCell>
        <mxCell id="nOckJOkMF16lbf6hdiKL-36" style="edgeStyle=orthogonalEdgeStyle;rounded=0;orthogonalLoop=1;jettySize=auto;html=1;exitX=0.667;exitY=1;exitDx=0;exitDy=0;entryX=0.5;entryY=0;entryDx=0;entryDy=0;exitPerimeter=0;" edge="1" parent="1" source="nOckJOkMF16lbf6hdiKL-37" target="nOckJOkMF16lbf6hdiKL-17">
          <mxGeometry relative="1" as="geometry">
            <mxPoint x="34320.030303030304" y="-3880" as="sourcePoint" />
          </mxGeometry>
        </mxCell>
        <mxCell id="nOckJOkMF16lbf6hdiKL-17" value="TARG&lt;br&gt;64b" style="rounded=0;whiteSpace=wrap;html=1;fillColor=#d5e8d4;strokeColor=#82b366;strokeWidth=3;" vertex="1" parent="1">
          <mxGeometry x="34300" y="-3760" width="40" height="40" as="geometry" />
        </mxCell>
        <mxCell id="nOckJOkMF16lbf6hdiKL-18" value="INIT&lt;br&gt;64b" style="rounded=0;whiteSpace=wrap;html=1;fillColor=#d5e8d4;strokeColor=#82b366;strokeWidth=3;dashed=1;" vertex="1" parent="1">
          <mxGeometry x="34220" y="-3760" width="40" height="40" as="geometry" />
        </mxCell>
        <mxCell id="nOckJOkMF16lbf6hdiKL-19" value="TARG&lt;br&gt;64b" style="rounded=0;whiteSpace=wrap;html=1;fillColor=#d5e8d4;strokeColor=#82b366;strokeWidth=3;" vertex="1" parent="1">
          <mxGeometry x="34520" y="-5500" width="40" height="40" as="geometry" />
        </mxCell>
        <mxCell id="nOckJOkMF16lbf6hdiKL-20" value="TARG&lt;br&gt;64b" style="rounded=0;whiteSpace=wrap;html=1;fillColor=#d5e8d4;strokeColor=#82b366;strokeWidth=3;" vertex="1" parent="1">
          <mxGeometry x="34180" y="-4120" width="40" height="40" as="geometry" />
        </mxCell>
        <mxCell id="nOckJOkMF16lbf6hdiKL-21" value="INIT&lt;br&gt;128b" style="rounded=0;whiteSpace=wrap;html=1;fillColor=#f8cecc;strokeColor=#b85450;strokeWidth=3;dashed=1;" vertex="1" parent="1">
          <mxGeometry x="33840" y="-3429" width="40" height="40" as="geometry" />
        </mxCell>
        <mxCell id="nOckJOkMF16lbf6hdiKL-40" style="edgeStyle=orthogonalEdgeStyle;rounded=0;orthogonalLoop=1;jettySize=auto;html=1;exitX=1;exitY=0.5;exitDx=0;exitDy=0;entryX=1;entryY=0.75;entryDx=0;entryDy=0;" edge="1" parent="1" source="nOckJOkMF16lbf6hdiKL-22" target="nOckJOkMF16lbf6hdiKL-37">
          <mxGeometry relative="1" as="geometry">
            <Array as="points">
              <mxPoint x="34580" y="-3430" />
              <mxPoint x="34580" y="-3910" />
            </Array>
          </mxGeometry>
        </mxCell>
        <mxCell id="nOckJOkMF16lbf6hdiKL-22" value="INIT&lt;br&gt;64b" style="rounded=0;whiteSpace=wrap;html=1;fillColor=#d5e8d4;strokeColor=#82b366;strokeWidth=3;dashed=1;" vertex="1" parent="1">
          <mxGeometry x="34520" y="-3450" width="40" height="40" as="geometry" />
        </mxCell>
        <mxCell id="nOckJOkMF16lbf6hdiKL-23" value="INIT&lt;br&gt;128b" style="rounded=0;whiteSpace=wrap;html=1;fillColor=#f8cecc;strokeColor=#b85450;strokeWidth=3;dashed=1;" vertex="1" parent="1">
          <mxGeometry x="33840" y="-3469" width="40" height="40" as="geometry" />
        </mxCell>
        <mxCell id="nOckJOkMF16lbf6hdiKL-28" value="PCIE" style="rounded=0;whiteSpace=wrap;html=1;fontSize=40;" vertex="1" parent="1">
          <mxGeometry x="33840" y="-5520" width="400" height="160" as="geometry" />
        </mxCell>
        <mxCell id="nOckJOkMF16lbf6hdiKL-29" value="TARG&lt;br&gt;64b" style="rounded=0;whiteSpace=wrap;html=1;fillColor=#d5e8d4;strokeColor=#82b366;strokeWidth=3;" vertex="1" parent="1">
          <mxGeometry x="33840" y="-5520" width="40" height="40" as="geometry" />
        </mxCell>
        <mxCell id="nOckJOkMF16lbf6hdiKL-30" value="INIT&lt;br&gt;128b" style="rounded=0;whiteSpace=wrap;html=1;fillColor=#f8cecc;strokeColor=#b85450;strokeWidth=3;dashed=1;" vertex="1" parent="1">
          <mxGeometry x="33840" y="-5460" width="40" height="40" as="geometry" />
        </mxCell>
        <mxCell id="nOckJOkMF16lbf6hdiKL-31" value="TARG&lt;br&gt;128b" style="rounded=0;whiteSpace=wrap;html=1;fillColor=#f8cecc;strokeColor=#b85450;strokeWidth=3;" vertex="1" parent="1">
          <mxGeometry x="33840" y="-5400" width="40" height="40" as="geometry" />
        </mxCell>
        <mxCell id="nOckJOkMF16lbf6hdiKL-32" value="SOC-MGMT&amp;nbsp;" style="rounded=0;whiteSpace=wrap;html=1;fontSize=40;" vertex="1" parent="1">
          <mxGeometry x="34260" y="-5440" width="300" height="80" as="geometry" />
        </mxCell>
        <mxCell id="nOckJOkMF16lbf6hdiKL-33" value="TARG&lt;br&gt;64b" style="rounded=0;whiteSpace=wrap;html=1;fillColor=#d5e8d4;strokeColor=#82b366;strokeWidth=3;" vertex="1" parent="1">
          <mxGeometry x="34520" y="-5440" width="40" height="40" as="geometry" />
        </mxCell>
        <mxCell id="nOckJOkMF16lbf6hdiKL-34" value="INIT&lt;br&gt;64b" style="rounded=0;whiteSpace=wrap;html=1;fillColor=#d5e8d4;strokeColor=#82b366;strokeWidth=3;dashed=1;" vertex="1" parent="1">
          <mxGeometry x="34520" y="-5400" width="40" height="40" as="geometry" />
        </mxCell>
        <mxCell id="nOckJOkMF16lbf6hdiKL-37" value="&lt;span style=&quot;font-size: 40px;&quot;&gt;5x3&lt;br&gt;&lt;/span&gt;" style="shape=hexagon;perimeter=hexagonPerimeter2;whiteSpace=wrap;html=1;fixedSize=1;fillColor=#ffff88;strokeColor=#36393d;rotation=0;" vertex="1" parent="1">
          <mxGeometry x="33840" y="-3940" width="720" height="40" as="geometry" />
        </mxCell>
        <mxCell id="nOckJOkMF16lbf6hdiKL-38" style="edgeStyle=orthogonalEdgeStyle;rounded=0;orthogonalLoop=1;jettySize=auto;html=1;exitX=0.5;exitY=0;exitDx=0;exitDy=0;entryX=0.5;entryY=1;entryDx=0;entryDy=0;" edge="1" parent="1" source="nOckJOkMF16lbf6hdiKL-37" target="nOckJOkMF16lbf6hdiKL-20">
          <mxGeometry relative="1" as="geometry" />
        </mxCell>
        <mxCell id="nOckJOkMF16lbf6hdiKL-39" style="edgeStyle=orthogonalEdgeStyle;rounded=0;orthogonalLoop=1;jettySize=auto;html=1;exitX=0.5;exitY=0;exitDx=0;exitDy=0;entryX=0.556;entryY=1;entryDx=0;entryDy=0;entryPerimeter=0;" edge="1" parent="1" source="nOckJOkMF16lbf6hdiKL-18" target="nOckJOkMF16lbf6hdiKL-37">
          <mxGeometry relative="1" as="geometry" />
        </mxCell>
        <mxCell id="nOckJOkMF16lbf6hdiKL-44" style="edgeStyle=orthogonalEdgeStyle;rounded=0;orthogonalLoop=1;jettySize=auto;html=1;exitX=0.982;exitY=0;exitDx=0;exitDy=0;entryX=0;entryY=0.5;entryDx=0;entryDy=0;exitPerimeter=0;" edge="1" parent="1" source="b3hrkV7SYTynuMKQ9GDM-172" target="nOckJOkMF16lbf6hdiKL-10">
          <mxGeometry relative="1" as="geometry" />
        </mxCell>
        <mxCell id="nOckJOkMF16lbf6hdiKL-45" style="edgeStyle=orthogonalEdgeStyle;rounded=0;orthogonalLoop=1;jettySize=auto;html=1;exitX=0.982;exitY=1;exitDx=0;exitDy=0;entryX=0;entryY=0.5;entryDx=0;entryDy=0;exitPerimeter=0;" edge="1" parent="1" source="b3hrkV7SYTynuMKQ9GDM-172" target="nOckJOkMF16lbf6hdiKL-13">
          <mxGeometry relative="1" as="geometry" />
        </mxCell>
        <mxCell id="nOckJOkMF16lbf6hdiKL-50" style="edgeStyle=orthogonalEdgeStyle;rounded=0;orthogonalLoop=1;jettySize=auto;html=1;exitX=0;exitY=0.5;exitDx=0;exitDy=0;entryX=1;entryY=0.25;entryDx=0;entryDy=0;jumpStyle=arc;" edge="1" parent="1" source="nOckJOkMF16lbf6hdiKL-46" target="b3hrkV7SYTynuMKQ9GDM-172">
          <mxGeometry relative="1" as="geometry">
            <Array as="points">
              <mxPoint x="34640" y="-3980" />
              <mxPoint x="33770" y="-3980" />
            </Array>
          </mxGeometry>
        </mxCell>
        <mxCell id="nOckJOkMF16lbf6hdiKL-46" value="&lt;span style=&quot;font-size: 40px;&quot;&gt;2x3&lt;/span&gt;" style="shape=hexagon;perimeter=hexagonPerimeter2;whiteSpace=wrap;html=1;fixedSize=1;fillColor=#ffff88;strokeColor=#36393d;rotation=-90;" vertex="1" parent="1">
          <mxGeometry x="34540" y="-5460" width="200" height="40" as="geometry" />
        </mxCell>
        <mxCell id="nOckJOkMF16lbf6hdiKL-47" style="edgeStyle=orthogonalEdgeStyle;rounded=0;orthogonalLoop=1;jettySize=auto;html=1;exitX=1;exitY=0.5;exitDx=0;exitDy=0;entryX=0.199;entryY=-0.003;entryDx=0;entryDy=0;entryPerimeter=0;" edge="1" parent="1" source="nOckJOkMF16lbf6hdiKL-34" target="nOckJOkMF16lbf6hdiKL-46">
          <mxGeometry relative="1" as="geometry" />
        </mxCell>
        <mxCell id="nOckJOkMF16lbf6hdiKL-48" style="edgeStyle=orthogonalEdgeStyle;rounded=0;orthogonalLoop=1;jettySize=auto;html=1;exitX=0.399;exitY=0;exitDx=0;exitDy=0;entryX=1;entryY=0.5;entryDx=0;entryDy=0;exitPerimeter=0;" edge="1" parent="1" source="nOckJOkMF16lbf6hdiKL-46" target="nOckJOkMF16lbf6hdiKL-33">
          <mxGeometry relative="1" as="geometry" />
        </mxCell>
        <mxCell id="nOckJOkMF16lbf6hdiKL-49" style="edgeStyle=orthogonalEdgeStyle;rounded=0;orthogonalLoop=1;jettySize=auto;html=1;exitX=0.699;exitY=0;exitDx=0;exitDy=0;entryX=1;entryY=0.5;entryDx=0;entryDy=0;exitPerimeter=0;" edge="1" parent="1" source="nOckJOkMF16lbf6hdiKL-46" target="nOckJOkMF16lbf6hdiKL-19">
          <mxGeometry relative="1" as="geometry" />
        </mxCell>
      </root>
    </mxGraphModel>
  </diagram>
</mxfile>
